<svg width="226" height="25" viewBox="0 0 226 25" fill="none" xmlns="http://www.w3.org/2000/svg">
    <path d="M46.44 19.7891L46.4 5.78906H43.74L38.58 14.4891L33.34 5.78906H30.66V19.7891H33.7V11.5691L37.8 18.3091H39.26L43.38 11.3891L43.4 19.7891H46.44ZM56.5416 20.0291C60.9416 20.0291 64.2016 16.9691 64.2016 12.7891C64.2016 8.60906 60.9416 5.54906 56.5416 5.54906C52.1216 5.54906 48.8816 8.62906 48.8816 12.7891C48.8816 16.9491 52.1216 20.0291 56.5416 20.0291ZM56.5416 17.2691C54.0416 17.2691 52.1616 15.4491 52.1616 12.7891C52.1616 10.1291 54.0416 8.30906 56.5416 8.30906C59.0416 8.30906 60.9216 10.1291 60.9216 12.7891C60.9216 15.4491 59.0416 17.2691 56.5416 17.2691ZM76.2766 5.78906V14.2891L69.3166 5.78906H66.6366V19.7891H69.8366V11.2891L76.8166 19.7891H79.4766V5.78906H76.2766ZM86.0089 17.1891V13.9491H92.5089V11.4291H86.0089V8.38906H93.3689V5.78906H82.7889V19.7891H93.6289V17.1891H86.0089ZM108.23 5.78906H105.05L101.31 12.0091L97.5702 5.78906H94.1302L99.5502 14.7891V19.7891H102.79V14.8291L108.23 5.78906ZM112.669 17.1891V13.9491H119.169V11.4291H112.669V8.38906H120.029V5.78906H109.449V19.7891H120.289V17.1891H112.669ZM135.29 19.7891L130.07 12.5491L134.95 5.78906H131.45L128.29 10.3291L125.07 5.78906H121.39L126.31 12.6691L121.13 19.7891H124.85L128.17 14.9291L131.55 19.7891H135.29ZM143.708 19.9091C145.768 19.9091 147.608 19.2091 148.848 17.8491L147.908 16.9091C146.768 18.0891 145.368 18.5891 143.768 18.5891C140.388 18.5891 137.848 16.1091 137.848 12.7891C137.848 9.46906 140.388 6.98906 143.768 6.98906C145.368 6.98906 146.768 7.48906 147.908 8.64906L148.848 7.70906C147.608 6.34906 145.768 5.66906 143.728 5.66906C139.508 5.66906 136.388 8.68906 136.388 12.7891C136.388 16.8891 139.508 19.9091 143.708 19.9091ZM162.243 5.78906V12.0291H153.483V5.78906H152.003V19.7891H153.483V13.3291H162.243V19.7891H163.703V5.78906H162.243ZM178.732 19.7891H180.292L173.892 5.78906H172.432L166.032 19.7891H167.572L169.252 16.0491H177.052L178.732 19.7891ZM169.792 14.8491L173.152 7.32906L176.512 14.8491H169.792ZM192.848 5.78906V17.1491L183.828 5.78906H182.608V19.7891H184.088V8.42906L193.088 19.7891H194.308V5.78906H192.848ZM208.738 17.5091C207.658 18.2891 206.418 18.5891 205.078 18.5891C201.638 18.5891 199.098 16.1091 199.098 12.7891C199.098 9.44906 201.638 6.98906 205.098 6.98906C206.738 6.98906 208.138 7.46906 209.318 8.62906L210.238 7.68906C208.998 6.34906 207.158 5.66906 205.038 5.66906C200.758 5.66906 197.638 8.68906 197.638 12.7891C197.638 16.8891 200.758 19.9091 205.018 19.9091C206.958 19.9091 208.838 19.3091 210.158 18.1291V12.7891H208.738V17.5091ZM215.826 18.5091V13.3091H223.066V12.0491H215.826V7.06906H223.946V5.78906H214.346V19.7891H224.246V18.5091H215.826Z"
          fill="#160647"/>
    <path d="M15 4.78906L9.5 14.7891L0 19.7891H15V4.78906Z" fill="url(#paint0_linear)"/>
    <defs>
        <linearGradient id="paint0_linear" x1="11.1548" y1="9.71413" x2="5.25648" y2="16.8913"
                        gradientUnits="userSpaceOnUse">
            <stop stop-color="#562EC2"/>
            <stop offset="1" stop-color="#A07EFE"/>
        </linearGradient>
    </defs>
</svg>
